<svg width="66" height="80" viewBox="0 0 66 80" fill="none" xmlns="http://www.w3.org/2000/svg">
    <path d="M64.9473 18.6469C64.7689 18.104 64.5328 17.581 64.2428 17.0866C63.9636 16.6005 63.6296 16.1467 63.2472 15.7338C62.8108 15.2621 62.3135 14.8483 61.7679 14.5031C60.943 13.9962 60.0324 13.6379 59.0792 13.4452C56.7436 12.9412 54.4846 13.2985 52.3024 14.5169C50.1201 15.7353 48.6572 17.4538 47.9137 19.6725C47.1607 21.8973 47.3383 23.9715 48.4467 25.8951C49.555 27.8188 51.277 29.0364 53.6127 29.5481C55.9262 30.0426 58.3447 29.6597 60.3824 28.4764C60.8696 28.204 61.3351 27.8958 61.7749 27.5545C63.1837 26.4673 64.2355 24.9973 64.7994 23.3277C65.3528 21.8246 65.4046 20.1877 64.9473 18.6538V18.6469Z" fill="#FFFFFF"/>
    <path d="M50.3957 32.9267L50.4262 32.8899C48.017 29.1178 45.0739 26.0872 41.5971 23.7979C44.8117 18.7644 49.8673 13.5627 56.7123 8.26196C57.1805 7.89877 57.5713 7.44862 57.8623 6.93721C58.1533 6.42579 58.3388 5.86312 58.4083 5.28134C58.4777 4.69955 58.4297 4.11004 58.2671 3.54645C58.1044 2.98287 57.8302 2.45625 57.4601 1.99667C57.0901 1.53708 56.6315 1.15354 56.1104 0.867922C55.5893 0.582309 55.0161 0.400222 54.4233 0.33206C53.8305 0.263898 53.2299 0.310995 52.6557 0.470661C52.0814 0.630327 51.5449 0.899436 51.0766 1.26262C45.542 5.54934 40.9654 9.88446 37.4713 14.1481C33.8434 18.5754 31.2628 23.0742 29.8022 27.5153C29.6193 28.072 29.5499 28.6586 29.5979 29.2415L11.6978 49.5113C6.53181 53.3002 3.55198 57.2089 2.63854 61.3412C1.59467 65.8961 1.03438 70.5449 0.966641 75.2132C0.962929 75.7987 1.0768 76.3792 1.30175 76.9215C1.5267 77.4638 1.85832 77.9574 2.27766 78.3738C2.69699 78.7903 3.19584 79.1217 3.74568 79.3489C4.29552 79.5761 4.88559 79.6947 5.48218 79.6981H5.51035C6.71096 79.6975 7.86252 79.2305 8.71345 78.3992C9.56439 77.568 10.0455 76.4399 10.0517 75.2615C10.1158 71.2125 10.6069 67.1809 11.517 63.2311C11.9209 61.4058 14.1281 57.5569 24.3709 52.2746C24.574 52.1702 24.7687 52.0508 24.9532 51.9174C25.1377 52.0509 25.3324 52.1704 25.5356 52.2746C35.7783 57.5569 37.9809 61.4081 38.3895 63.2334C39.2998 67.1824 39.7916 71.2132 39.8571 75.2615C39.8639 76.4393 40.3454 77.5665 41.1963 78.3969C42.0472 79.2274 43.1985 79.6935 44.3984 79.6935H44.4266C45.023 79.6898 45.6128 79.571 46.1624 79.3436C46.712 79.1163 47.2105 78.7849 47.6296 78.3684C48.0487 77.952 48.3801 77.4585 48.6049 76.9164C48.8297 76.3742 48.9435 75.7939 48.9398 75.2085C48.8722 70.5403 48.3119 65.8915 47.2679 61.3366C46.7513 58.9997 45.5678 56.7272 43.7081 54.5217C47.6788 53.7219 51.767 52.8715 55.8951 51.9865C56.6105 51.8334 57.2775 51.5128 57.8394 51.0521C58.4012 50.5913 58.8413 50.004 59.122 49.3403C59.4026 48.6766 59.5157 47.9561 59.4514 47.2403C59.3871 46.5244 59.1475 45.8345 58.7528 45.2292C56.1487 41.2305 53.3379 37.0936 50.3957 32.9244V32.9267ZM39.634 46.2386C39.0755 46.3497 38.5433 46.5631 38.0654 46.8678L44.2458 39.88C45.3573 41.4733 46.4468 43.0581 47.5145 44.6345C44.8446 45.1877 42.2099 45.7247 39.6363 46.2478L39.634 46.2386Z" fill="#FFFFFF"/>
</svg>
