<svg width="61" height="91" viewBox="0 0 61 91" fill="none" xmlns="http://www.w3.org/2000/svg">
<path d="M46.9635 9.16658C46.9635 11.5756 46.0065 13.886 44.303 15.5895C42.5995 17.2929 40.2892 18.2499 37.8801 18.2499C35.4711 18.2499 33.1607 17.2929 31.4572 15.5895C29.7538 13.886 28.7968 11.5756 28.7968 9.16658C28.7968 6.75753 29.7538 4.44715 31.4572 2.7437C33.1607 1.04024 35.4711 0.083252 37.8801 0.083252C40.2892 0.083252 42.5995 1.04024 44.303 2.7437C46.0065 4.44715 46.9635 6.75753 46.9635 9.16658Z" fill="#0077C8"/>
<path d="M34.3445 55.4847L46.1369 67.1204C46.5891 67.5666 46.9426 68.1027 47.1747 68.6941L53.4626 84.7148C53.9029 85.8363 53.8796 87.0866 53.3979 88.1909C52.9163 89.2952 52.0157 90.1629 50.8943 90.6031C49.7729 91.0434 48.5225 91.0201 47.4182 90.5385C46.314 90.0568 45.4463 89.1562 45.006 88.0348L39.0701 72.9088L18.7961 52.9027C18.3062 52.4196 17.9324 51.8315 17.7031 51.1828C17.4737 50.5341 17.3948 49.8418 17.4722 49.1581L19.0958 34.8065C15.1809 38.6987 12.1607 44.1691 9.8467 51.4199C9.67369 51.9979 9.38725 52.5356 9.00411 53.0017C8.62096 53.4678 8.1488 53.8528 7.61518 54.1344C7.08156 54.4159 6.4972 54.5883 5.89621 54.6415C5.29522 54.6947 4.68965 54.6276 4.11488 54.4442C3.5401 54.2607 3.00764 53.9646 2.54858 53.5731C2.08953 53.1816 1.71309 52.7025 1.44124 52.1639C1.16939 51.6253 1.00759 51.0379 0.965282 50.436C0.922974 49.8342 1.00101 49.2299 1.19483 48.6586C5.44129 35.3515 12.4922 25.3916 24.3233 20.8249L24.3755 20.8045C27.3889 19.685 30.5226 19.7758 33.3158 21.2178C35.9976 22.6053 37.9074 25.001 39.1586 27.6851C39.6855 28.816 40.1714 29.8719 40.6301 30.8643C41.7383 33.2668 42.6693 35.2924 43.5663 37.0682C44.8221 39.5661 45.8326 41.2238 46.8318 42.3842C47.7583 43.4629 48.678 44.126 49.852 44.5847C51.1146 45.0774 52.8835 45.4181 55.6154 45.4998C56.2155 45.5118 56.8072 45.6427 57.3565 45.8848C57.9057 46.1269 58.4015 46.4755 58.8152 46.9105C59.2289 47.3454 59.5522 47.858 59.7666 48.4186C59.981 48.9793 60.0821 49.5769 60.0641 50.1768C60.0461 50.7768 59.9093 51.3672 59.6617 51.914C59.4141 52.4608 59.0606 52.9531 58.6215 53.3624C58.1825 53.7718 57.6667 54.09 57.1039 54.2987C56.5412 54.5075 55.9426 54.6026 55.3428 54.5786C52.0615 54.481 49.148 54.0609 46.5479 53.0458C43.8615 51.9967 41.7428 50.4003 39.9398 48.2998C38.8044 46.9781 37.8052 45.468 36.8742 43.8262L34.3445 55.4847Z" fill="#0077C8"/>
<path d="M17.4722 59.6245L25 66.8457L21.5347 78.5337C21.2667 79.438 20.7239 80.2364 19.9815 80.8182L8.32299 89.9537C7.85331 90.3216 7.31578 90.5933 6.74108 90.7534C6.16639 90.9135 5.56578 90.9588 4.97357 90.8868C4.38135 90.8148 3.80911 90.6269 3.28953 90.3337C2.76995 90.0405 2.3132 89.6479 1.94536 89.1782C1.57752 88.7085 1.30579 88.171 1.14568 87.5963C0.985581 87.0216 0.94024 86.421 1.01225 85.8288C1.08426 85.2366 1.27221 84.6643 1.56538 84.1448C1.85854 83.6252 2.25117 83.1684 2.72085 82.8006L13.2393 74.562L16.4072 63.8664L17.4722 59.6245Z" fill="#0077C8"/>
</svg>
