<svg width="67" height="82" viewBox="0 0 67 82" fill="none" xmlns="http://www.w3.org/2000/svg">
<path d="M40.4676 3.85181H10.9676C9.01162 3.85181 7.13576 4.63457 5.75268 6.02789C4.3696 7.42122 3.59259 9.31098 3.59259 11.2814V70.7185C3.59259 72.6889 4.3696 74.5787 5.75268 75.972C7.13576 77.3653 9.01162 78.1481 10.9676 78.1481H55.2176C57.1736 78.1481 59.0494 77.3653 60.4325 75.972C61.8156 74.5787 62.5926 72.6889 62.5926 70.7185V26.1407L40.4676 3.85181Z" stroke="#0077C8" stroke-width="7" stroke-linecap="round" stroke-linejoin="round"/>
<path d="M40.4675 3.85181V26.1407H62.5925" stroke="#0077C8" stroke-width="7" stroke-linecap="round" stroke-linejoin="round"/>
<path d="M47.8424 44.7146H18.3424" stroke="#0077C8" stroke-width="7" stroke-linecap="round" stroke-linejoin="round"/>
<path d="M47.8424 59.574H18.3424" stroke="#0077C8" stroke-width="7" stroke-linecap="round" stroke-linejoin="round"/>
<path d="M25.7174 29.8556H22.0299H18.3424" stroke="#0077C8" stroke-width="7" stroke-linecap="round" stroke-linejoin="round"/>
</svg>
