<svg width="66" height="80" viewBox="0 0 66 80" fill="none" xmlns="http://www.w3.org/2000/svg">
<path d="M64.9474 18.6469C64.769 18.104 64.5328 17.581 64.2429 17.0866C63.9636 16.6005 63.6297 16.1467 63.2473 15.7338C62.8109 15.2621 62.3135 14.8483 61.7679 14.5031C60.943 13.9962 60.0325 13.6379 59.0793 13.4452C56.7436 12.9412 54.4847 13.2985 52.3024 14.5169C50.1202 15.7353 48.6573 17.4538 47.9137 19.6725C47.1607 21.8973 47.3384 23.9715 48.4467 25.8951C49.5551 27.8188 51.2771 29.0364 53.6127 29.5481C55.9262 30.0426 58.3447 29.6597 60.3825 28.4764C60.8697 28.204 61.3351 27.8958 61.775 27.5545C63.1838 26.4673 64.2356 24.9973 64.7994 23.3277C65.3529 21.8246 65.4047 20.1877 64.9474 18.6538V18.6469Z" fill="#0077C8"/>
<path d="M50.3957 32.9267L50.4263 32.8899C48.017 29.1178 45.074 26.0872 41.5971 23.7979C44.8118 18.7644 49.8674 13.5627 56.7123 8.26196C57.1806 7.89877 57.5714 7.44862 57.8624 6.93721C58.1534 6.42579 58.3389 5.86312 58.4083 5.28134C58.4778 4.69955 58.4298 4.11004 58.2671 3.54645C58.1044 2.98287 57.8302 2.45625 57.4602 1.99667C57.0902 1.53708 56.6315 1.15354 56.1105 0.867922C55.5894 0.582309 55.0161 0.400222 54.4234 0.33206C53.8306 0.263898 53.2299 0.310995 52.6557 0.470661C52.0815 0.630327 51.545 0.899436 51.0767 1.26262C45.5421 5.54934 40.9655 9.88446 37.4714 14.1481C33.8435 18.5754 31.2628 23.0742 29.8023 27.5153C29.6194 28.072 29.55 28.6586 29.598 29.2415L11.6979 49.5113C6.53187 53.3002 3.55204 57.2089 2.6386 61.3412C1.59473 65.8961 1.03444 70.5449 0.966702 75.2132C0.96299 75.7987 1.07686 76.3792 1.30181 76.9215C1.52676 77.4638 1.85838 77.9574 2.27772 78.3738C2.69706 78.7903 3.1959 79.1217 3.74574 79.3489C4.29559 79.5761 4.88566 79.6947 5.48224 79.6981H5.51042C6.71102 79.6975 7.86258 79.2305 8.71352 78.3992C9.56445 77.568 10.0456 76.4399 10.0518 75.2615C10.1159 71.2125 10.6069 67.1809 11.517 63.2311C11.9209 61.4058 14.1282 57.5569 24.3709 52.2746C24.574 52.1702 24.7687 52.0508 24.9533 51.9174C25.1378 52.0509 25.3325 52.1704 25.5356 52.2746C35.7784 57.5569 37.9809 61.4081 38.3895 63.2334C39.2998 67.1824 39.7917 71.2132 39.8571 75.2615C39.864 76.4393 40.3454 77.5665 41.1964 78.3969C42.0473 79.2274 43.1985 79.6935 44.3985 79.6935H44.4267C45.0231 79.6898 45.6129 79.571 46.1625 79.3436C46.712 79.1163 47.2106 78.7849 47.6297 78.3684C48.0488 77.952 48.3802 77.4585 48.605 76.9164C48.8298 76.3742 48.9436 75.7939 48.9399 75.2085C48.8723 70.5403 48.312 65.8915 47.268 61.3366C46.7514 58.9997 45.5679 56.7272 43.7081 54.5217C47.6789 53.7219 51.7671 52.8715 55.8951 51.9865C56.6105 51.8334 57.2776 51.5128 57.8394 51.0521C58.4013 50.5913 58.8413 50.004 59.122 49.3403C59.4027 48.6766 59.5157 47.9561 59.4515 47.2403C59.3872 46.5244 59.1475 45.8345 58.7529 45.2292C56.1488 41.2305 53.338 37.0936 50.3957 32.9244V32.9267ZM39.6341 46.2386C39.0755 46.3497 38.5434 46.5631 38.0655 46.8678L44.2459 39.88C45.3573 41.4733 46.4469 43.0581 47.5145 44.6345C44.8447 45.1877 42.21 45.7247 39.6364 46.2478L39.6341 46.2386Z" fill="#0077C8"/>
</svg>
