<svg width="76" height="76" viewBox="0 0 76 76" fill="none" xmlns="http://www.w3.org/2000/svg">
<path d="M27.8603 24.0892C27.8173 23.987 27.7978 23.8781 27.8029 23.7694C28.1558 18.0408 33.312 16.0488 38.0187 16.0488C43.2082 16.0488 47.9484 18.5141 47.9484 23.6176C47.9484 27.2603 45.5894 28.9966 43.3271 30.5598C40.5893 32.4479 39.5752 33.1537 39.5752 35.5794V35.9339C39.5752 36.1564 39.4773 36.3725 39.3032 36.5308C39.129 36.689 38.8928 36.7781 38.6465 36.7781H35.6337C35.39 36.7781 35.156 36.6908 34.9823 36.5357C34.8085 36.3791 34.709 36.168 34.705 35.947L34.6939 35.2132C34.5527 32.0835 36.5327 30.1542 39.0328 28.5036C41.2283 27.0046 42.6176 26.0186 42.6176 23.8733C42.6176 21.0881 40.2847 19.9288 37.7363 19.9288C34.7571 19.9288 33.0854 21.5433 32.7511 23.7595C32.6842 24.2212 32.2756 24.6037 31.7629 24.6037H28.6982C28.5782 24.6053 28.4589 24.584 28.3478 24.5428C28.2367 24.5015 28.1362 24.4405 28.0524 24.3613C27.9686 24.2839 27.9031 24.1915 27.8603 24.0892Z" fill="#0077C8"/>
<path d="M37.3388 46.3619C35.1656 46.3619 33.5868 45.0312 33.5868 43.2306C33.5868 41.3673 35.1656 40.0563 37.335 40.0563C39.5974 40.0563 41.1576 41.3673 41.1576 43.2306C41.1576 45.0312 39.6011 46.3619 37.3388 46.3619Z" fill="#0077C8"/>
<path fill-rule="evenodd" clip-rule="evenodd" d="M4.56665 0.851807C2.51502 0.851807 0.851837 2.36392 0.851837 4.22891V58.2625C0.851837 60.1276 2.51502 61.6396 4.56665 61.6396H19.4259V71.771C19.4259 73.1363 20.331 74.3681 21.7191 74.8908C23.1073 75.4136 24.705 75.125 25.7674 74.1587L39.5387 61.6396H56.5741C57.5593 61.6396 58.5041 61.2835 59.2008 60.6503L74.06 47.1419C74.7568 46.5086 75.1481 45.6496 75.1481 44.7542V4.22891C75.1481 2.36392 73.4849 0.851807 71.4333 0.851807H4.56665ZM8.28147 54.8854V7.60601H67.7185V43.3558L55.0353 54.8854H38C37.0147 54.8854 36.0699 55.2417 35.3733 55.8748L26.8555 63.6185V58.2625C26.8555 56.3976 25.1923 54.8854 23.1407 54.8854H8.28147Z" fill="#0077C8"/>
</svg>
